HIERARCHY
ROOT Hips
{
  OFFSET 53.7543 95.69 29.048
  CHANNELS 6 Xposition Yposition Zposition Zrotation Xrotation Yrotation
  JOINT spine
  {
    OFFSET 0 7.96568 0.458067
    CHANNELS 3 Zrotation Xrotation Yrotation
    JOINT spine1
    {
      OFFSET 0 10.2431 0
      CHANNELS 3 Zrotation Xrotation Yrotation
      JOINT spine2
      {
        OFFSET 0 9.81475 0
        CHANNELS 3 Zrotation Xrotation Yrotation
        JOINT Neck
        {
          OFFSET 0 25.1986 1.20138
          CHANNELS 3 Zrotation Xrotation Yrotation
          JOINT Head
          {
            OFFSET 0 7.61315 0
            CHANNELS 3 Zrotation Xrotation Yrotation
            End Site
            {
              OFFSET 0 18.4281 -6.07733
            }
          }
        }
        JOINT RightShoulder
        {
          OFFSET -4.1327 10.5992 -0.575451
          CHANNELS 3 Zrotation Xrotation Yrotation
          JOINT RightArm
          {
            OFFSET 0 13.9018 0
            CHANNELS 3 Zrotation Xrotation Yrotation
            JOINT RightArmRoll
            {
              OFFSET 0 7.01789 0
              CHANNELS 3 Zrotation Xrotation Yrotation
              JOINT RightForeArm
              {
                OFFSET 0 20.4406 0
                CHANNELS 3 Zrotation Xrotation Yrotation
                JOINT RightForeArmRoll
                {
                  OFFSET 0 7.87515 0
                  CHANNELS 3 Zrotation Xrotation Yrotation
                  JOINT RightHand
                  {
                    OFFSET 0 15.8037 0
                    CHANNELS 3 Zrotation Xrotation Yrotation
                    End Site
                    {
                      OFFSET 0 0 0
                    }
                  }
                }
              }
            }
          }
        }
        JOINT LeftShoulder
        {
          OFFSET 4.1327 10.5992 -0.575451
          CHANNELS 3 Zrotation Xrotation Yrotation
          JOINT LeftArm
          {
            OFFSET 0 13.9018 0
            CHANNELS 3 Zrotation Xrotation Yrotation
            JOINT LeftArmRoll
            {
              OFFSET 0 7.01789 0
              CHANNELS 3 Zrotation Xrotation Yrotation
              JOINT LeftForeArm
              {
                OFFSET 0 20.4406 0
                CHANNELS 3 Zrotation Xrotation Yrotation
                JOINT LeftForeArmRoll
                {
                  OFFSET 0 7.87516 0
                  CHANNELS 3 Zrotation Xrotation Yrotation
                  JOINT LeftHand
                  {
                    OFFSET 0 15.8037 0
                    CHANNELS 3 Zrotation Xrotation Yrotation
                    End Site
                    {
                      OFFSET 0 0 0
                    }
                  }
                }
              }
            }
          }
        }
      }
    }
  }
  JOINT RightUpLeg
  {
    OFFSET -7.06048 -1.2947 -1.0861
    CHANNELS 3 Zrotation Xrotation Yrotation
    JOINT RightUpLegRoll
    {
      OFFSET 0 18.5308 0
      CHANNELS 3 Zrotation Xrotation Yrotation
      JOINT RightLeg
      {
        OFFSET 0 -22.9476 0
        CHANNELS 3 Zrotation Xrotation Yrotation
        JOINT RightLegRoll
        {
          OFFSET 0 23.0226 0
          CHANNELS 3 Zrotation Xrotation Yrotation
          JOINT RightFoot
          {
            OFFSET 0 19.1625 0
            CHANNELS 3 Zrotation Xrotation Yrotation
            JOINT RightToeBase
            {
              OFFSET 0 16.0188 0
              CHANNELS 3 Zrotation Xrotation Yrotation
              End Site
              {
                OFFSET 0.00678979 7.75781 -0.894207
              }
            }
          }
        }
      }
    }
  }
  JOINT LeftUpLeg
  {
    OFFSET 7.06048 -1.2947 -1.0861
    CHANNELS 3 Zrotation Xrotation Yrotation
    JOINT LeftUpLegRoll
    {
      OFFSET 0 18.5309 0
      CHANNELS 3 Zrotation Xrotation Yrotation
      JOINT LeftLeg
      {
        OFFSET 0 22.9475 0
        CHANNELS 3 Zrotation Xrotation Yrotation
        JOINT LeftLegRoll
        {
          OFFSET 0 23.2355 0
          CHANNELS 3 Zrotation Xrotation Yrotation
          JOINT LeftFoot
          {
            OFFSET 0 18.9496 0
            CHANNELS 3 Zrotation Xrotation Yrotation
            JOINT LeftToeBase
            {
              OFFSET 0 16.0188 0
              CHANNELS 3 Zrotation Xrotation Yrotation
              End Site
              {
                OFFSET -0.0304289 7.75781 -0.894207
              }
            }
          }
        }
      }
    }
  }
}
MOTION
Frames: 4
Frame Time: 0.00208333
52.6684 73.19 0.257852 -1.3992 35.273 8.95557 -0.587393 0.484017 -0.358714 -1.1704 4.97384 -0.634002 -1.16483 6.61866 -0.615109 0.689438 9.58332 -5.56832 1.71993 12.8908 -5.55023 61.9524 -3.41439 -2.37521 108.746 27.4438 -23.6746 1.11319e-014 0 -3.18055e-015 24.0083 59.8559 -17.4236 -4.28875e-006 -4.47071e-006 -3.00351 8.02886 -4.95099 0.697486 -64.0153 -2.32706 1.9354 -103.123 32.6659 31.3778 -1.59028e-015 3.18055e-015 3.18055e-015 -32.2293 58.9504 22.1982 1.23135e-006 -3.0783e-006 3.00736 -8.02901 -4.95091 -0.697415 64.2404 76.354 110.484 -180 1.52586e-005 179.711 179.223 68.4342 177.151 1.60941e-006 -3.52245e-006 0.570322 -14.2704 71.5085 22.2184 8.13692 25.239 -3.48788 -10.9908 85.5187 -167.378 4.47153e-006 -3.51245e-005 -0.574582 -2.64201 -67.2677 0.635502 1.95755e-006 -6.86802e-006 -0.893179 16.5552 71.418 -22.3669 -8.13662 25.2346 3.48642 
52.6736 73.3188 0.376472 -1.39927 35.0986 8.92187 -0.586168 0.474023 -0.359187 -1.16772 4.95385 -0.63526 -1.16212 6.59868 -0.616415 0.712028 9.49374 -5.53675 1.67339 12.8969 -5.51282 62.0231 -3.39614 -2.37035 108.851 27.6874 -23.4015 -3.18055e-015 0 -3.18055e-015 23.9051 59.0894 -17.071 -4.28875e-006 -4.47071e-006 -3.00351 8.02886 -4.95099 0.697486 -64.0291 -2.33548 1.94126 -103.397 32.82 31.0621 -9.54166e-015 -3.18055e-015 3.18055e-015 -32.0586 58.2427 21.7362 1.23135e-006 -3.0783e-006 3.00736 -8.02901 -4.95091 -0.697415 65.8044 76.5212 108.957 -180 1.52586e-005 179.705 179.06 68.2521 177.279 1.60941e-006 -3.52245e-006 0.569503 -14.37 71.5523 22.2652 8.13692 25.239 -3.48788 -12.2861 85.8916 -166.043 4.47153e-006 -3.51245e-005 -0.576277 -2.62273 -67.1067 0.643348 1.95755e-006 -6.86802e-006 -0.890892 16.6197 71.4677 -22.4181 -8.13662 25.2346 3.48642 
52.6753 73.4656 0.490366 -1.39899 34.9225 8.88762 -0.584995 0.463983 -0.359648 -1.16514 4.93377 -0.636511 -1.15952 6.5786 -0.617713 0.737781 9.40562 -5.50495 1.62377 12.903 -5.47432 62.097 -3.37606 -2.3647 108.951 27.9302 -23.1285 1.27222e-014 -3.18055e-015 -6.36111e-015 23.8011 58.3175 -16.7207 -4.28875e-006 -4.47071e-006 -3.00351 8.02886 -4.95099 0.697486 -64.0413 -2.34379 1.94692 -103.672 32.9762 30.7471 1.59028e-015 6.36111e-015 6.36111e-015 -31.8803 57.5197 21.268 1.23135e-006 -3.0783e-006 3.00736 -8.02901 -4.95091 -0.697415 67.4191 76.6783 107.381 -180 1.52586e-005 179.699 178.896 68.0669 177.408 1.60941e-006 -3.52245e-006 0.56868 -14.4697 71.5943 22.3108 8.13692 25.239 -3.48788 -13.8544 86.2644 -164.435 4.47153e-006 -3.51245e-005 -0.578037 -2.60357 -66.9445 0.650963 1.95755e-006 -6.86802e-006 -0.88867 16.6849 71.5169 -22.4692 -8.13662 25.2346 3.48642 
52.6811 73.6037 0.598023 -1.39833 34.745 8.8531 -0.583864 0.453865 -0.360098 -1.16265 4.91353 -0.637761 -1.15701 6.55836 -0.619008 0.765641 9.31903 -5.47315 1.57258 12.9092 -5.43525 62.1735 -3.35439 -2.35835 109.047 28.1715 -22.8557 -4.77083e-015 -7.95139e-015 -9.54166e-015 23.6968 57.5416 -16.374 -4.28875e-006 -4.47071e-006 -3.00351 8.02886 -4.95099 0.697486 -64.0529 -2.35148 1.95219 -103.946 33.134 30.4327 -2.8625e-014 2.22639e-014 1.90833e-014 -31.6958 56.7833 20.7965 1.23135e-006 -3.0783e-006 3.00736 -8.02901 -4.95091 -0.697415 69.0821 76.8251 105.757 -180 1.52586e-005 179.692 178.732 67.8793 177.536 1.60941e-006 -3.52245e-006 0.567832 -14.5691 71.635 22.3555 8.13692 25.239 -3.48788 -15.7828 86.6359 -162.468 4.47153e-006 -3.51245e-005 -0.579851 -2.58463 -66.781 0.658291 1.95755e-006 -6.86802e-006 -0.886492 16.7506 71.5658 -22.5203 -8.13662 25.2346 3.48642 
